<?xml version="1.0" encoding="utf-8"?>
<!-- Generator: Adobe Illustrator 25.1.0, SVG Export Plug-In . SVG Version: 6.00 Build 0)  -->
<svg version="1.1" id="Capa_1" xmlns="http://www.w3.org/2000/svg" xmlns:xlink="http://www.w3.org/1999/xlink" x="0px" y="0px"
	 viewBox="0 0 27.8 9.2" style="enable-background:new 0 0 27.8 9.2;" xml:space="preserve">
<style type="text/css">
	.st0{fill:#222222;}
</style>
<g>
	<path class="st0" d="M4,2.8L3.8,3.8L0.4,5l0.1-0.6l2.9,1.1l-0.2,1L0,5.2l0.2-1.1L4,2.8z"/>
	<path class="st0" d="M6.5,9.2l0.8-3.9l0.3,1.6L4.8,0h2.6l2,5H7.8l4-5h2.6L9,6.9l0.9-1.6L9.1,9.2H6.5z"/>
	<path class="st0" d="M13.2,9.2L15.1,0h2.1l3.7,6.1l-0.9,0L21.3,0h2.5L22,9.2h-2.1l-3.7-6.1l0.9,0l-1.2,6.1H13.2z"/>
	<path class="st0" d="M23.8,6.5L24,5.4l3.4-1.1l-0.1,0.6l-2.9-1.1l0.2-1l3.3,1.3l-0.2,1.1L23.8,6.5z"/>
</g>
</svg>
